<svg width="50" height="49" viewBox="0 0 50 49" fill="none" xmlns="http://www.w3.org/2000/svg">
<path fill-rule="evenodd" clip-rule="evenodd" d="M32.8077 12.5678C42.3028 12.5678 50 20.2173 50 29.6533C50 39.0894 42.3028 46.7389 32.8077 46.7389C23.3127 46.7389 15.6154 39.0894 15.6154 29.6533C15.6154 20.2173 23.3127 12.5678 32.8077 12.5678ZM32.8077 21.1106C28.0602 21.1106 24.2116 24.9353 24.2116 29.6533C24.2116 34.3714 28.0602 38.1961 32.8077 38.1961C37.5552 38.1961 41.4039 34.3714 41.4039 29.6533C41.4039 24.9353 37.5552 21.1106 32.8077 21.1106Z" fill="#FF6B00"/>
<path d="M25.5429 3.05161C24.0775 1.31599 21.9783 0.229998 19.7071 0.0325307C17.4359 -0.164937 15.1789 0.542298 13.4324 1.99865C11.6859 3.45501 10.5932 5.54118 10.3945 7.79825C10.1958 10.0553 10.9074 12.2984 12.3729 14.034L26.5278 17.5083L25.5429 3.05161Z" fill="#FF6B00"/>
<path d="M10.7293 14.5931C8.52082 14.0309 6.17801 14.3636 4.2163 15.518C2.25458 16.6724 0.834666 18.5539 0.268911 20.7488C-0.296844 22.9436 0.037905 25.2718 1.19952 27.2214C2.36113 29.1709 4.25446 30.582 6.46298 31.1443L20.0045 25.773L10.7293 14.5931Z" fill="#FF6B00"/>
<path d="M6.22675 32.3605C4.06595 33.083 2.28246 34.629 1.26863 36.6583C0.254809 38.6877 0.0936944 41.0341 0.820734 43.1815C1.54777 45.3289 3.10341 47.1013 5.14543 48.1088C7.18744 49.1164 9.54856 49.2765 11.7094 48.554L20.1299 36.7249L6.22675 32.3605Z" fill="#FF6B00"/>
</svg>
