<svg width="164" height="49" viewBox="0 0 164 49" fill="none" xmlns="http://www.w3.org/2000/svg">
<path fill-rule="evenodd" clip-rule="evenodd" d="M32.8077 12.5678C42.3028 12.5678 50 20.2173 50 29.6533C50 39.0894 42.3028 46.7389 32.8077 46.7389C23.3127 46.7389 15.6154 39.0894 15.6154 29.6533C15.6154 20.2173 23.3127 12.5678 32.8077 12.5678ZM32.8077 21.1106C28.0602 21.1106 24.2116 24.9353 24.2116 29.6533C24.2116 34.3714 28.0602 38.1961 32.8077 38.1961C37.5552 38.1961 41.4039 34.3714 41.4039 29.6533C41.4039 24.9353 37.5552 21.1106 32.8077 21.1106Z" fill="#F6F2EF"/>
<path d="M25.5429 3.05161C24.0775 1.31599 21.9783 0.229998 19.7071 0.0325307C17.4359 -0.164937 15.1789 0.542298 13.4324 1.99865C11.6859 3.45501 10.5932 5.54118 10.3945 7.79825C10.1958 10.0553 10.9074 12.2984 12.3729 14.034L26.5278 17.5083L25.5429 3.05161Z" fill="#F6F2EF"/>
<path d="M10.7293 14.5931C8.52082 14.0309 6.17801 14.3636 4.2163 15.518C2.25458 16.6724 0.834666 18.5539 0.268911 20.7488C-0.296844 22.9436 0.037905 25.2718 1.19952 27.2214C2.36113 29.1709 4.25446 30.582 6.46298 31.1443L20.0045 25.773L10.7293 14.5931Z" fill="#F6F2EF"/>
<path d="M6.22675 32.3605C4.06595 33.083 2.28246 34.629 1.26863 36.6583C0.254809 38.6877 0.0936944 41.0341 0.820734 43.1815C1.54777 45.3289 3.10341 47.1013 5.14543 48.1088C7.18744 49.1164 9.54856 49.2765 11.7094 48.554L20.1299 36.7249L6.22675 32.3605Z" fill="#F6F2EF"/>
<mask id="path-2-outside-1_1239_1317" maskUnits="userSpaceOnUse" x="61" y="11" width="103" height="35" fill="black">
<rect fill="white" x="61" y="11" width="103" height="35"/>
<path d="M67.248 23.136C67.248 19.04 70.64 16.192 75.568 16.192C80.304 16.192 83.312 18.816 83.44 23.04H79.344C79.248 21.024 77.808 19.84 75.504 19.84C72.976 19.84 71.344 21.056 71.344 23.008C71.344 24.672 72.24 25.6 74.192 26.048L77.872 26.848C81.872 27.712 83.824 29.76 83.824 33.248C83.824 37.6 80.432 40.416 75.28 40.416C70.288 40.416 67.024 37.76 66.928 33.568H71.024C71.056 35.552 72.656 36.736 75.28 36.736C78 36.736 79.728 35.552 79.728 33.6C79.728 32.032 78.928 31.104 77.008 30.688L73.296 29.856C69.328 28.992 67.248 26.72 67.248 23.136ZM86.0255 32.064C86.0255 27.136 89.5775 23.744 94.4735 23.744C99.3695 23.744 102.922 27.136 102.922 32.064C102.922 36.992 99.3695 40.384 94.4735 40.384C89.5775 40.384 86.0255 36.992 86.0255 32.064ZM89.9295 32.064C89.9295 34.944 91.7855 36.896 94.4735 36.896C97.1615 36.896 99.0175 34.944 99.0175 32.064C99.0175 29.184 97.1615 27.232 94.4735 27.232C91.7855 27.232 89.9295 29.184 89.9295 32.064ZM104.386 24.192H106.658V22.272C106.658 17.984 108.898 16.192 112.098 16.192C112.706 16.192 113.442 16.224 114.114 16.352V19.68H112.738C110.978 19.68 110.53 20.704 110.53 22.272V24.192H117.186V19.264H121.09V24.192H124.162V27.456H121.09V40H117.186V27.456H110.53V40H106.658V27.456H104.386V24.192ZM141.668 28.32L133.892 16.608H138.756L141.604 20.8C142.564 22.24 143.364 23.584 144.228 25.184L149.668 16.608H154.436L146.788 28.288L154.468 40H149.635L147.012 36.128C145.988 34.56 145.156 33.152 144.228 31.456L138.532 40H133.732L141.668 28.32Z"/>
</mask>
<path d="M67.248 23.136C67.248 19.04 70.64 16.192 75.568 16.192C80.304 16.192 83.312 18.816 83.44 23.04H79.344C79.248 21.024 77.808 19.84 75.504 19.84C72.976 19.84 71.344 21.056 71.344 23.008C71.344 24.672 72.24 25.6 74.192 26.048L77.872 26.848C81.872 27.712 83.824 29.76 83.824 33.248C83.824 37.6 80.432 40.416 75.28 40.416C70.288 40.416 67.024 37.76 66.928 33.568H71.024C71.056 35.552 72.656 36.736 75.28 36.736C78 36.736 79.728 35.552 79.728 33.6C79.728 32.032 78.928 31.104 77.008 30.688L73.296 29.856C69.328 28.992 67.248 26.72 67.248 23.136ZM86.0255 32.064C86.0255 27.136 89.5775 23.744 94.4735 23.744C99.3695 23.744 102.922 27.136 102.922 32.064C102.922 36.992 99.3695 40.384 94.4735 40.384C89.5775 40.384 86.0255 36.992 86.0255 32.064ZM89.9295 32.064C89.9295 34.944 91.7855 36.896 94.4735 36.896C97.1615 36.896 99.0175 34.944 99.0175 32.064C99.0175 29.184 97.1615 27.232 94.4735 27.232C91.7855 27.232 89.9295 29.184 89.9295 32.064ZM104.386 24.192H106.658V22.272C106.658 17.984 108.898 16.192 112.098 16.192C112.706 16.192 113.442 16.224 114.114 16.352V19.68H112.738C110.978 19.68 110.53 20.704 110.53 22.272V24.192H117.186V19.264H121.09V24.192H124.162V27.456H121.09V40H117.186V27.456H110.53V40H106.658V27.456H104.386V24.192ZM141.668 28.32L133.892 16.608H138.756L141.604 20.8C142.564 22.24 143.364 23.584 144.228 25.184L149.668 16.608H154.436L146.788 28.288L154.468 40H149.635L147.012 36.128C145.988 34.56 145.156 33.152 144.228 31.456L138.532 40H133.732L141.668 28.32Z" fill="#FF6B00"/>
<path d="M83.44 23.04V28.04H88.5938L88.4377 22.8886L83.44 23.04ZM79.344 23.04L74.3497 23.2778L74.5764 28.04H79.344V23.04ZM74.192 26.048L73.0735 30.9213L73.1017 30.9278L73.1299 30.9339L74.192 26.048ZM77.872 26.848L76.8099 31.7339L76.8163 31.7353L77.872 26.848ZM66.928 33.568V28.568H61.8122L61.9293 33.6825L66.928 33.568ZM71.024 33.568L76.0233 33.4874L75.944 28.568H71.024V33.568ZM77.008 30.688L75.9144 35.5669L75.9318 35.5708L75.9492 35.5746L77.008 30.688ZM73.296 29.856L74.3896 24.9771L74.3747 24.9737L74.3598 24.9705L73.296 29.856ZM67.248 23.136H72.248C72.248 22.5761 72.4339 22.2425 72.7671 21.9639C73.1663 21.6302 74.0413 21.192 75.568 21.192V16.192V11.192C72.1667 11.192 68.8817 12.1778 66.3529 14.2921C63.7581 16.4615 62.248 19.5999 62.248 23.136H67.248ZM75.568 16.192V21.192C77.0357 21.192 77.7064 21.5919 77.9489 21.8031C78.1325 21.963 78.4152 22.2968 78.4423 23.1914L83.44 23.04L88.4377 22.8886C88.3368 19.5592 87.0515 16.469 84.5151 14.2609C82.0376 12.104 78.8363 11.192 75.568 11.192V16.192ZM83.44 23.04V18.04H79.344V23.04V28.04H83.44V23.04ZM79.344 23.04L84.3383 22.8022C84.2326 20.5808 83.3237 18.3962 81.446 16.8372C79.6519 15.3475 77.4729 14.84 75.504 14.84V19.84V24.84C75.8391 24.84 75.5321 24.9245 75.058 24.5308C74.82 24.3333 74.6255 24.0797 74.4983 23.8077C74.3753 23.5446 74.3529 23.3466 74.3497 23.2778L79.344 23.04ZM75.504 19.84V14.84C73.5048 14.84 71.2964 15.314 69.4584 16.7053C67.4774 18.2047 66.344 20.4765 66.344 23.008H71.344H76.344C76.344 23.2309 76.2935 23.5567 76.1187 23.9094C75.944 24.2619 75.7066 24.5175 75.4936 24.6787C75.1036 24.974 74.9752 24.84 75.504 24.84V19.84ZM71.344 23.008H66.344C66.344 24.7962 66.8585 26.7824 68.3993 28.4154C69.8179 29.9189 71.6113 30.5857 73.0735 30.9213L74.192 26.048L75.3105 21.1747C74.8207 21.0623 75.1901 21.0411 75.6727 21.5526C75.931 21.8263 76.1224 22.1512 76.2351 22.4741C76.3405 22.7759 76.344 22.9797 76.344 23.008H71.344ZM74.192 26.048L73.1299 30.9339L76.8099 31.7339L77.872 26.848L78.9341 21.9621L75.2541 21.1621L74.192 26.048ZM77.872 26.848L76.8163 31.7353C78.2473 32.0444 78.6518 32.4319 78.6969 32.48C78.7102 32.4943 78.7213 32.5047 78.7412 32.5612C78.767 32.6343 78.824 32.8402 78.824 33.248H83.824H88.824C88.824 30.5127 88.0263 27.8147 85.9991 25.648C84.0682 23.5841 81.4967 22.5156 78.9277 21.9607L77.872 26.848ZM83.824 33.248H78.824C78.824 34.019 78.5754 34.3783 78.276 34.6288C77.8891 34.9524 76.9822 35.416 75.28 35.416V40.416V45.416C78.7298 45.416 82.0949 44.4716 84.692 42.2992C87.3766 40.0537 88.824 36.829 88.824 33.248H83.824ZM75.28 40.416V35.416C73.6326 35.416 72.7819 34.9787 72.4342 34.6942C72.1753 34.4824 71.9432 34.1742 71.9267 33.4535L66.928 33.568L61.9293 33.6825C62.0088 37.1538 63.4567 40.2696 66.1018 42.4338C68.6581 44.5253 71.9355 45.416 75.28 45.416V40.416ZM66.928 33.568V38.568H71.024V33.568V28.568H66.928V33.568ZM71.024 33.568L66.0247 33.6486C66.0646 36.1243 67.1644 38.3982 69.1976 39.9091C71.0653 41.2971 73.2933 41.736 75.28 41.736V36.736V31.736C74.6427 31.736 74.7587 31.5829 75.1624 31.8829C75.3863 32.0493 75.628 32.3096 75.8033 32.6593C75.9767 33.0051 76.0205 33.3085 76.0233 33.4874L71.024 33.568ZM75.28 36.736V41.736C77.2806 41.736 79.5097 41.3123 81.3899 39.9972C83.4527 38.5543 84.728 36.2643 84.728 33.6H79.728H74.728C74.728 33.3305 74.7933 32.9573 74.9985 32.5704C75.2012 32.1883 75.4621 31.94 75.6581 31.8028C75.9943 31.5677 75.9994 31.736 75.28 31.736V36.736ZM79.728 33.6H84.728C84.728 31.9316 84.2778 29.9742 82.7738 28.3334C81.366 26.7976 79.5619 26.1253 78.0668 25.8014L77.008 30.688L75.9492 35.5746C76.3741 35.6667 75.93 35.6664 75.4022 35.0906C75.1284 34.7919 74.939 34.4503 74.8311 34.1277C74.7307 33.8274 74.728 33.6264 74.728 33.6H79.728ZM77.008 30.688L78.1016 25.8091L74.3896 24.9771L73.296 29.856L72.2024 34.7349L75.9144 35.5669L77.008 30.688ZM73.296 29.856L74.3598 24.9705C73.0534 24.686 72.6058 24.2877 72.4932 24.1632C72.4426 24.1071 72.248 23.9055 72.248 23.136H67.248H62.248C62.248 25.9505 63.0934 28.6769 65.0748 30.8688C66.9942 32.9923 69.5706 34.162 72.2322 34.7415L73.296 29.856ZM86.0255 32.064H91.0255C91.0255 30.8447 91.4408 30.0881 91.9058 29.6342C92.3829 29.1686 93.2008 28.744 94.4735 28.744V23.744V18.744C90.8502 18.744 87.4441 20.0154 84.9212 22.4778C82.3862 24.9519 81.0255 28.3553 81.0255 32.064H86.0255ZM94.4735 23.744V28.744C95.7462 28.744 96.5641 29.1686 97.0412 29.6342C97.5062 30.0881 97.9215 30.8447 97.9215 32.064H102.922H107.922C107.922 28.3553 106.561 24.9519 104.026 22.4778C101.503 20.0154 98.0968 18.744 94.4735 18.744V23.744ZM102.922 32.064H97.9215C97.9215 33.2833 97.5062 34.0399 97.0412 34.4938C96.5641 34.9594 95.7462 35.384 94.4735 35.384V40.384V45.384C98.0968 45.384 101.503 44.1126 104.026 41.6502C106.561 39.1761 107.922 35.7727 107.922 32.064H102.922ZM94.4735 40.384V35.384C93.2008 35.384 92.3829 34.9594 91.9058 34.4938C91.4408 34.0399 91.0255 33.2833 91.0255 32.064H86.0255H81.0255C81.0255 35.7727 82.3862 39.1761 84.9212 41.6502C87.4441 44.1126 90.8502 45.384 94.4735 45.384V40.384ZM89.9295 32.064H84.9295C84.9295 34.5864 85.7569 37.0835 87.5565 38.9911C89.3773 40.9211 91.8679 41.896 94.4735 41.896V36.896V31.896C94.4109 31.896 94.4443 31.8859 94.5383 31.9247C94.6349 31.9646 94.7413 32.0343 94.8305 32.1289C94.9181 32.2217 94.9499 32.2966 94.9548 32.3099C94.9587 32.3203 94.9295 32.2471 94.9295 32.064H89.9295ZM94.4735 36.896V41.896C97.0791 41.896 99.5697 40.9211 101.39 38.9911C103.19 37.0835 104.018 34.5864 104.018 32.064H99.0175H94.0175C94.0175 32.2471 93.9883 32.3203 93.9922 32.3099C93.9971 32.2966 94.0289 32.2217 94.1165 32.1289C94.2057 32.0343 94.3121 31.9646 94.4087 31.9247C94.5027 31.8859 94.5361 31.896 94.4735 31.896V36.896ZM99.0175 32.064H104.018C104.018 29.5416 103.19 27.0445 101.39 25.1369C99.5697 23.2069 97.0791 22.232 94.4735 22.232V27.232V32.232C94.5361 32.232 94.5027 32.2421 94.4087 32.2033C94.3121 32.1634 94.2057 32.0937 94.1165 31.9991C94.0289 31.9063 93.9971 31.8314 93.9922 31.8181C93.9883 31.8077 94.0175 31.8809 94.0175 32.064H99.0175ZM94.4735 27.232V22.232C91.8679 22.232 89.3773 23.2069 87.5565 25.1369C85.7569 27.0445 84.9295 29.5416 84.9295 32.064H89.9295H94.9295C94.9295 31.8809 94.9587 31.8077 94.9548 31.8181C94.9499 31.8314 94.9181 31.9063 94.8305 31.9991C94.7413 32.0937 94.6349 32.1634 94.5383 32.2033C94.4443 32.2421 94.4109 32.232 94.4735 32.232V27.232ZM104.386 24.192V19.192H99.3855V24.192H104.386ZM106.658 24.192V29.192H111.658V24.192H106.658ZM114.114 16.352H119.114V12.2145L115.049 11.4403L114.114 16.352ZM114.114 19.68V24.68H119.114V19.68H114.114ZM110.529 24.192H105.529V29.192H110.529V24.192ZM117.186 24.192V29.192H122.186V24.192H117.186ZM117.186 19.264V14.264H112.186V19.264H117.186ZM121.09 19.264H126.09V14.264H121.09V19.264ZM121.09 24.192H116.09V29.192H121.09V24.192ZM124.161 24.192H129.161V19.192H124.161V24.192ZM124.161 27.456V32.456H129.161V27.456H124.161ZM121.09 27.456V22.456H116.09V27.456H121.09ZM121.09 40V45H126.09V40H121.09ZM117.186 40H112.186V45H117.186V40ZM117.186 27.456H122.186V22.456H117.186V27.456ZM110.529 27.456V22.456H105.529V27.456H110.529ZM110.529 40V45H115.53V40H110.529ZM106.658 40H101.658V45H106.658V40ZM106.658 27.456H111.658V22.456H106.658V27.456ZM104.386 27.456H99.3855V32.456H104.386V27.456ZM104.386 24.192V29.192H106.658V24.192V19.192H104.386V24.192ZM106.658 24.192H111.658V22.272H106.658H101.658V24.192H106.658ZM106.658 22.272H111.658C111.658 21.6245 111.743 21.2653 111.795 21.1107C111.841 20.9744 111.853 21.0169 111.756 21.1156C111.659 21.2156 111.57 21.2509 111.575 21.2493C111.598 21.241 111.755 21.192 112.097 21.192V16.192V11.192C109.588 11.192 106.767 11.9097 104.599 14.1324C102.443 16.342 101.658 19.2973 101.658 22.272H106.658ZM112.097 16.192V21.192C112.318 21.192 112.534 21.1979 112.734 21.2119C112.938 21.2262 113.086 21.2462 113.178 21.2637L114.114 16.352L115.049 11.4403C113.929 11.2269 112.834 11.192 112.097 11.192V16.192ZM114.114 16.352H109.114V19.68H114.114H119.114V16.352H114.114ZM114.114 19.68V14.68H112.737V19.68V24.68H114.114V19.68ZM112.737 19.68V14.68C110.861 14.68 108.522 15.2797 106.944 17.4281C105.628 19.2189 105.529 21.236 105.529 22.272H110.529H115.53C115.53 22.0925 115.545 22.1222 115.511 22.2779C115.474 22.4427 115.357 22.8664 115.003 23.3479C114.618 23.8729 114.102 24.2596 113.571 24.4806C113.094 24.6792 112.761 24.68 112.737 24.68V19.68ZM110.529 22.272H105.529V24.192H110.529H115.53V22.272H110.529ZM110.529 24.192V29.192H117.186V24.192V19.192H110.529V24.192ZM117.186 24.192H122.186V19.264H117.186H112.186V24.192H117.186ZM117.186 19.264V24.264H121.09V19.264V14.264H117.186V19.264ZM121.09 19.264H116.09V24.192H121.09H126.09V19.264H121.09ZM121.09 24.192V29.192H124.161V24.192V19.192H121.09V24.192ZM124.161 24.192H119.161V27.456H124.161H129.161V24.192H124.161ZM124.161 27.456V22.456H121.09V27.456V32.456H124.161V27.456ZM121.09 27.456H116.09V40H121.09H126.09V27.456H121.09ZM121.09 40V35H117.186V40V45H121.09V40ZM117.186 40H122.186V27.456H117.186H112.186V40H117.186ZM117.186 27.456V22.456H110.529V27.456V32.456H117.186V27.456ZM110.529 27.456H105.529V40H110.529H115.53V27.456H110.529ZM110.529 40V35H106.658V40V45H110.529V40ZM106.658 40H111.658V27.456H106.658H101.658V40H106.658ZM106.658 27.456V22.456H104.386V27.456V32.456H106.658V27.456ZM104.386 27.456H109.385V24.192H104.386H99.3855V27.456H104.386ZM141.668 28.32L145.803 31.13L147.691 28.3522L145.833 25.5544L141.668 28.32ZM133.892 16.608V11.608H124.57L129.726 19.3736L133.892 16.608ZM138.756 16.608L142.891 13.7982L141.403 11.608H138.756V16.608ZM141.604 20.8L145.764 18.0265L145.752 18.0083L145.739 17.9902L141.604 20.8ZM144.228 25.184L139.828 27.5597L143.881 35.065L148.45 27.8623L144.228 25.184ZM149.668 16.608V11.608H146.918L145.445 13.9297L149.668 16.608ZM154.436 16.608L158.619 19.347L163.686 11.608H154.436V16.608ZM146.787 28.288L142.604 25.549L140.81 28.29L142.606 31.0298L146.787 28.288ZM154.467 40V45H163.725L158.649 37.2582L154.467 40ZM149.635 40L145.496 42.805L146.984 45H149.635V40ZM147.011 36.128L142.825 38.8619L142.848 38.8977L142.872 38.933L147.011 36.128ZM144.228 31.456L148.614 29.0559L144.649 21.8099L140.067 28.6825L144.228 31.456ZM138.532 40V45H141.207L142.692 42.7735L138.532 40ZM133.731 40L129.596 37.19L124.289 45H133.731V40ZM141.668 28.32L145.833 25.5544L138.057 13.8424L133.892 16.608L129.726 19.3736L137.502 31.0856L141.668 28.32ZM133.892 16.608V21.608H138.756V16.608V11.608H133.892V16.608ZM138.756 16.608L134.62 19.4178L137.468 23.6098L141.604 20.8L145.739 17.9902L142.891 13.7982L138.756 16.608ZM141.604 20.8L137.443 23.5735C138.307 24.8696 139.028 26.0791 139.828 27.5597L144.228 25.184L148.627 22.8083C147.699 21.0889 146.82 19.6104 145.764 18.0265L141.604 20.8ZM144.228 25.184L148.45 27.8623L153.89 19.2863L149.668 16.608L145.445 13.9297L140.005 22.5057L144.228 25.184ZM149.668 16.608V21.608H154.436V16.608V11.608H149.668V16.608ZM154.436 16.608L150.252 13.869L142.604 25.549L146.787 28.288L150.971 31.027L158.619 19.347L154.436 16.608ZM146.787 28.288L142.606 31.0298L150.286 42.7418L154.467 40L158.649 37.2582L150.969 25.5462L146.787 28.288ZM154.467 40V35H149.635V40V45H154.467V40ZM149.635 40L153.775 37.195L151.151 33.323L147.011 36.128L142.872 38.933L145.496 42.805L149.635 40ZM147.011 36.128L151.198 33.3941C150.256 31.9511 149.49 30.6567 148.614 29.0559L144.228 31.456L139.841 33.8561C140.821 35.6473 141.719 37.1689 142.825 38.8619L147.011 36.128ZM144.228 31.456L140.067 28.6825L134.371 37.2265L138.532 40L142.692 42.7735L148.388 34.2295L144.228 31.456ZM138.532 40V35H133.731V40V45H138.532V40ZM133.731 40L137.867 42.81L145.803 31.13L141.668 28.32L137.532 25.51L129.596 37.19L133.731 40Z" fill="white" fill-opacity="0.9" mask="url(#path-2-outside-1_1239_1317)"/>
</svg>
