<svg width="162" height="49" viewBox="0 0 162 49" fill="none" xmlns="http://www.w3.org/2000/svg">
<path fill-rule="evenodd" clip-rule="evenodd" d="M32.8077 12.5678C42.3028 12.5678 50 20.2173 50 29.6533C50 39.0894 42.3028 46.7389 32.8077 46.7389C23.3127 46.7389 15.6154 39.0894 15.6154 29.6533C15.6154 20.2173 23.3127 12.5678 32.8077 12.5678ZM32.8077 21.1106C28.0602 21.1106 24.2116 24.9353 24.2116 29.6533C24.2116 34.3714 28.0602 38.1961 32.8077 38.1961C37.5552 38.1961 41.4039 34.3714 41.4039 29.6533C41.4039 24.9353 37.5552 21.1106 32.8077 21.1106Z" fill="#FF6B00"/>
<path d="M25.5429 3.05161C24.0775 1.31599 21.9783 0.229998 19.7071 0.0325307C17.4359 -0.164937 15.1789 0.542298 13.4324 1.99865C11.6859 3.45501 10.5932 5.54118 10.3945 7.79825C10.1958 10.0553 10.9074 12.2984 12.3729 14.034L26.5278 17.5083L25.5429 3.05161Z" fill="#FF6B00"/>
<path d="M10.7293 14.5931C8.52082 14.0309 6.17801 14.3636 4.2163 15.518C2.25458 16.6724 0.834666 18.5539 0.268911 20.7488C-0.296844 22.9436 0.037905 25.2718 1.19952 27.2214C2.36113 29.1709 4.25446 30.582 6.46298 31.1443L20.0045 25.773L10.7293 14.5931Z" fill="#FF6B00"/>
<path d="M6.22675 32.3605C4.06595 33.083 2.28246 34.629 1.26863 36.6583C0.254809 38.6877 0.0936944 41.0341 0.820734 43.1815C1.54777 45.3289 3.10341 47.1013 5.14543 48.1088C7.18744 49.1164 9.54856 49.2765 11.7094 48.554L20.1299 36.7249L6.22675 32.3605Z" fill="#FF6B00"/>
<mask id="path-2-outside-1_1290_838" maskUnits="userSpaceOnUse" x="68" y="11" width="94" height="35" fill="black">
<rect fill="white" x="68" y="11" width="94" height="35"/>
<path d="M73.7949 23.136C73.7949 19.04 77.1869 16.192 82.1149 16.192C86.8509 16.192 89.8589 18.816 89.9869 23.04H85.8909C85.7949 21.024 84.3549 19.84 82.0509 19.84C79.5229 19.84 77.8909 21.056 77.8909 23.008C77.8909 24.672 78.7869 25.6 80.7389 26.048L84.4189 26.848C88.4189 27.712 90.3709 29.76 90.3709 33.248C90.3709 37.6 86.9789 40.416 81.8269 40.416C76.8349 40.416 73.5709 37.76 73.4749 33.568H77.5709C77.6029 35.552 79.2029 36.736 81.8269 36.736C84.5469 36.736 86.2749 35.552 86.2749 33.6C86.2749 32.032 85.4749 31.104 83.5549 30.688L79.8429 29.856C75.8749 28.992 73.7949 26.72 73.7949 23.136ZM92.5724 32.064C92.5724 27.136 96.1244 23.744 101.02 23.744C105.916 23.744 109.468 27.136 109.468 32.064C109.468 36.992 105.916 40.384 101.02 40.384C96.1244 40.384 92.5724 36.992 92.5724 32.064ZM96.4764 32.064C96.4764 34.944 98.3324 36.896 101.02 36.896C103.708 36.896 105.564 34.944 105.564 32.064C105.564 29.184 103.708 27.232 101.02 27.232C98.3324 27.232 96.4764 29.184 96.4764 32.064ZM110.932 24.192H113.204V22.272C113.204 17.984 115.444 16.192 118.644 16.192C119.252 16.192 119.988 16.224 120.66 16.352V19.68H119.284C117.524 19.68 117.076 20.704 117.076 22.272V24.192H123.732V19.264H127.636V24.192H130.708V27.456H127.636V40H123.732V27.456H117.076V40H113.204V27.456H110.932V24.192ZM139.152 28.32L131.376 16.608H136.24L139.088 20.8C140.048 22.24 140.848 23.584 141.712 25.184L147.152 16.608H151.92L144.272 28.288L151.952 40H147.12L144.496 36.128C143.472 34.56 142.64 33.152 141.712 31.456L136.016 40H131.216L139.152 28.32Z"/>
</mask>
<path d="M73.7949 23.136C73.7949 19.04 77.1869 16.192 82.1149 16.192C86.8509 16.192 89.8589 18.816 89.9869 23.04H85.8909C85.7949 21.024 84.3549 19.84 82.0509 19.84C79.5229 19.84 77.8909 21.056 77.8909 23.008C77.8909 24.672 78.7869 25.6 80.7389 26.048L84.4189 26.848C88.4189 27.712 90.3709 29.76 90.3709 33.248C90.3709 37.6 86.9789 40.416 81.8269 40.416C76.8349 40.416 73.5709 37.76 73.4749 33.568H77.5709C77.6029 35.552 79.2029 36.736 81.8269 36.736C84.5469 36.736 86.2749 35.552 86.2749 33.6C86.2749 32.032 85.4749 31.104 83.5549 30.688L79.8429 29.856C75.8749 28.992 73.7949 26.72 73.7949 23.136ZM92.5724 32.064C92.5724 27.136 96.1244 23.744 101.02 23.744C105.916 23.744 109.468 27.136 109.468 32.064C109.468 36.992 105.916 40.384 101.02 40.384C96.1244 40.384 92.5724 36.992 92.5724 32.064ZM96.4764 32.064C96.4764 34.944 98.3324 36.896 101.02 36.896C103.708 36.896 105.564 34.944 105.564 32.064C105.564 29.184 103.708 27.232 101.02 27.232C98.3324 27.232 96.4764 29.184 96.4764 32.064ZM110.932 24.192H113.204V22.272C113.204 17.984 115.444 16.192 118.644 16.192C119.252 16.192 119.988 16.224 120.66 16.352V19.68H119.284C117.524 19.68 117.076 20.704 117.076 22.272V24.192H123.732V19.264H127.636V24.192H130.708V27.456H127.636V40H123.732V27.456H117.076V40H113.204V27.456H110.932V24.192ZM139.152 28.32L131.376 16.608H136.24L139.088 20.8C140.048 22.24 140.848 23.584 141.712 25.184L147.152 16.608H151.92L144.272 28.288L151.952 40H147.12L144.496 36.128C143.472 34.56 142.64 33.152 141.712 31.456L136.016 40H131.216L139.152 28.32Z" fill="#FF6B00"/>
<path d="M89.9869 23.04V28.04H95.1407L94.9846 22.8886L89.9869 23.04ZM85.8909 23.04L80.8965 23.2778L81.1233 28.04H85.8909V23.04ZM80.7389 26.048L79.6204 30.9213L79.6485 30.9278L79.6767 30.9339L80.7389 26.048ZM84.4189 26.848L83.3567 31.7339L83.3632 31.7353L84.4189 26.848ZM73.4749 33.568V28.568H68.3591L68.4762 33.6825L73.4749 33.568ZM77.5709 33.568L82.5702 33.4874L82.4909 28.568H77.5709V33.568ZM83.5549 30.688L82.4613 35.5669L82.4787 35.5708L82.4961 35.5746L83.5549 30.688ZM79.8429 29.856L80.9364 24.9771L80.9216 24.9737L80.9067 24.9705L79.8429 29.856ZM73.7949 23.136H78.7949C78.7949 22.5761 78.9808 22.2425 79.314 21.9639C79.7132 21.6302 80.5881 21.192 82.1149 21.192V16.192V11.192C78.7136 11.192 75.4286 12.1778 72.8998 14.2921C70.3049 16.4615 68.7949 19.5999 68.7949 23.136H73.7949ZM82.1149 16.192V21.192C83.5826 21.192 84.2532 21.5919 84.4958 21.8031C84.6794 21.963 84.9621 22.2968 84.9892 23.1914L89.9869 23.04L94.9846 22.8886C94.8837 19.5592 93.5984 16.469 91.062 14.2609C88.5845 12.104 85.3832 11.192 82.1149 11.192V16.192ZM89.9869 23.04V18.04H85.8909V23.04V28.04H89.9869V23.04ZM85.8909 23.04L90.8852 22.8022C90.7794 20.5808 89.8706 18.3962 87.9929 16.8372C86.1988 15.3475 84.0198 14.84 82.0509 14.84V19.84V24.84C82.3859 24.84 82.0789 24.9245 81.6048 24.5308C81.3669 24.3333 81.1724 24.0797 81.0452 23.8077C80.9222 23.5446 80.8998 23.3466 80.8965 23.2778L85.8909 23.04ZM82.0509 19.84V14.84C80.0517 14.84 77.8433 15.314 76.0053 16.7053C74.0243 18.2047 72.8909 20.4765 72.8909 23.008H77.8909H82.8909C82.8909 23.2309 82.8403 23.5567 82.6656 23.9094C82.4909 24.2619 82.2534 24.5175 82.0405 24.6787C81.6504 24.974 81.5221 24.84 82.0509 24.84V19.84ZM77.8909 23.008H72.8909C72.8909 24.7962 73.4054 26.7824 74.9462 28.4154C76.3648 29.9189 78.1581 30.5857 79.6204 30.9213L80.7389 26.048L81.8573 21.1747C81.3676 21.0623 81.737 21.0411 82.2196 21.5526C82.4778 21.8263 82.6693 22.1512 82.782 22.4741C82.8874 22.7759 82.8909 22.9797 82.8909 23.008H77.8909ZM80.7389 26.048L79.6767 30.9339L83.3567 31.7339L84.4189 26.848L85.481 21.9621L81.801 21.1621L80.7389 26.048ZM84.4189 26.848L83.3632 31.7353C84.7942 32.0444 85.1987 32.4319 85.2437 32.48C85.2571 32.4943 85.2682 32.5047 85.2881 32.5612C85.3139 32.6343 85.3709 32.8402 85.3709 33.248H90.3709H95.3709C95.3709 30.5127 94.5732 27.8147 92.546 25.648C90.6151 23.5841 88.0436 22.5156 85.4745 21.9607L84.4189 26.848ZM90.3709 33.248H85.3709C85.3709 34.019 85.1223 34.3783 84.8229 34.6288C84.436 34.9524 83.5291 35.416 81.8269 35.416V40.416V45.416C85.2766 45.416 88.6418 44.4716 91.2389 42.2992C93.9234 40.0537 95.3709 36.829 95.3709 33.248H90.3709ZM81.8269 40.416V35.416C80.1794 35.416 79.3288 34.9787 78.9811 34.6942C78.7221 34.4824 78.4901 34.1742 78.4736 33.4535L73.4749 33.568L68.4762 33.6825C68.5557 37.1538 70.0036 40.2696 72.6487 42.4338C75.205 44.5253 78.4823 45.416 81.8269 45.416V40.416ZM73.4749 33.568V38.568H77.5709V33.568V28.568H73.4749V33.568ZM77.5709 33.568L72.5715 33.6486C72.6115 36.1243 73.7113 38.3982 75.7444 39.9091C77.6122 41.2971 79.8402 41.736 81.8269 41.736V36.736V31.736C81.1896 31.736 81.3056 31.5829 81.7093 31.8829C81.9332 32.0493 82.1749 32.3096 82.3502 32.6593C82.5235 33.0051 82.5673 33.3085 82.5702 33.4874L77.5709 33.568ZM81.8269 36.736V41.736C83.8275 41.736 86.0566 41.3123 87.9368 39.9972C89.9995 38.5543 91.2749 36.2643 91.2749 33.6H86.2749H81.2749C81.2749 33.3305 81.3401 32.9573 81.5454 32.5704C81.7481 32.1883 82.0089 31.94 82.205 31.8028C82.5412 31.5677 82.5463 31.736 81.8269 31.736V36.736ZM86.2749 33.6H91.2749C91.2749 31.9316 90.8247 29.9742 89.3206 28.3334C87.9128 26.7976 86.1088 26.1253 84.6136 25.8014L83.5549 30.688L82.4961 35.5746C82.9209 35.6667 82.4769 35.6664 81.9491 35.0906C81.6753 34.7919 81.4858 34.4503 81.378 34.1277C81.2776 33.8274 81.2749 33.6264 81.2749 33.6H86.2749ZM83.5549 30.688L84.6484 25.8091L80.9364 24.9771L79.8429 29.856L78.7493 34.7349L82.4613 35.5669L83.5549 30.688ZM79.8429 29.856L80.9067 24.9705C79.6003 24.686 79.1527 24.2877 79.0401 24.1632C78.9894 24.1071 78.7949 23.9055 78.7949 23.136H73.7949H68.7949C68.7949 25.9505 69.6403 28.6769 71.6216 30.8688C73.541 32.9923 76.1175 34.162 78.7791 34.7415L79.8429 29.856ZM92.5724 32.064H97.5724C97.5724 30.8447 97.9877 30.0881 98.4527 29.6342C98.9298 29.1686 99.7476 28.744 101.02 28.744V23.744V18.744C97.3971 18.744 93.9909 20.0154 91.468 22.4778C88.9331 24.9519 87.5724 28.3553 87.5724 32.064H92.5724ZM101.02 23.744V28.744C102.293 28.744 103.111 29.1686 103.588 29.6342C104.053 30.0881 104.468 30.8447 104.468 32.064H109.468H114.468C114.468 28.3553 113.108 24.9519 110.573 22.4778C108.05 20.0154 104.644 18.744 101.02 18.744V23.744ZM109.468 32.064H104.468C104.468 33.2833 104.053 34.0399 103.588 34.4938C103.111 34.9594 102.293 35.384 101.02 35.384V40.384V45.384C104.644 45.384 108.05 44.1126 110.573 41.6502C113.108 39.1761 114.468 35.7727 114.468 32.064H109.468ZM101.02 40.384V35.384C99.7476 35.384 98.9298 34.9594 98.4527 34.4938C97.9877 34.0399 97.5724 33.2833 97.5724 32.064H92.5724H87.5724C87.5724 35.7727 88.9331 39.1761 91.468 41.6502C93.9909 44.1126 97.3971 45.384 101.02 45.384V40.384ZM96.4764 32.064H91.4764C91.4764 34.5864 92.3038 37.0835 94.1034 38.9911C95.9242 40.9211 98.4148 41.896 101.02 41.896V36.896V31.896C100.958 31.896 100.991 31.8859 101.085 31.9247C101.182 31.9646 101.288 32.0343 101.377 32.1289C101.465 32.2217 101.497 32.2966 101.502 32.3099C101.506 32.3203 101.476 32.2471 101.476 32.064H96.4764ZM101.02 36.896V41.896C103.626 41.896 106.117 40.9211 107.937 38.9911C109.737 37.0835 110.564 34.5864 110.564 32.064H105.564H100.564C100.564 32.2471 100.535 32.3203 100.539 32.3099C100.544 32.2966 100.576 32.2217 100.663 32.1289C100.753 32.0343 100.859 31.9646 100.956 31.9247C101.05 31.8859 101.083 31.896 101.02 31.896V36.896ZM105.564 32.064H110.564C110.564 29.5416 109.737 27.0445 107.937 25.1369C106.117 23.2069 103.626 22.232 101.02 22.232V27.232V32.232C101.083 32.232 101.05 32.2421 100.956 32.2033C100.859 32.1634 100.753 32.0937 100.663 31.9991C100.576 31.9063 100.544 31.8314 100.539 31.8181C100.535 31.8077 100.564 31.8809 100.564 32.064H105.564ZM101.02 27.232V22.232C98.4148 22.232 95.9242 23.2069 94.1034 25.1369C92.3038 27.0445 91.4764 29.5416 91.4764 32.064H96.4764H101.476C101.476 31.8809 101.506 31.8077 101.502 31.8181C101.497 31.8314 101.465 31.9063 101.377 31.9991C101.288 32.0937 101.182 32.1634 101.085 32.2033C100.991 32.2421 100.958 32.232 101.02 32.232V27.232ZM110.932 24.192V19.192H105.932V24.192H110.932ZM113.204 24.192V29.192H118.204V24.192H113.204ZM120.66 16.352H125.66V12.2145L121.596 11.4403L120.66 16.352ZM120.66 19.68V24.68H125.66V19.68H120.66ZM117.076 24.192H112.076V29.192H117.076V24.192ZM123.732 24.192V29.192H128.732V24.192H123.732ZM123.732 19.264V14.264H118.732V19.264H123.732ZM127.636 19.264H132.636V14.264H127.636V19.264ZM127.636 24.192H122.636V29.192H127.636V24.192ZM130.708 24.192H135.708V19.192H130.708V24.192ZM130.708 27.456V32.456H135.708V27.456H130.708ZM127.636 27.456V22.456H122.636V27.456H127.636ZM127.636 40V45H132.636V40H127.636ZM123.732 40H118.732V45H123.732V40ZM123.732 27.456H128.732V22.456H123.732V27.456ZM117.076 27.456V22.456H112.076V27.456H117.076ZM117.076 40V45H122.076V40H117.076ZM113.204 40H108.204V45H113.204V40ZM113.204 27.456H118.204V22.456H113.204V27.456ZM110.932 27.456H105.932V32.456H110.932V27.456ZM110.932 24.192V29.192H113.204V24.192V19.192H110.932V24.192ZM113.204 24.192H118.204V22.272H113.204H108.204V24.192H113.204ZM113.204 22.272H118.204C118.204 21.6245 118.29 21.2653 118.342 21.1107C118.388 20.9744 118.4 21.0169 118.303 21.1156C118.206 21.2156 118.117 21.2509 118.122 21.2493C118.145 21.241 118.301 21.192 118.644 21.192V16.192V11.192C116.135 11.192 113.314 11.9097 111.145 14.1324C108.99 16.342 108.204 19.2973 108.204 22.272H113.204ZM118.644 16.192V21.192C118.864 21.192 119.08 21.1979 119.28 21.2119C119.485 21.2262 119.633 21.2462 119.725 21.2637L120.66 16.352L121.596 11.4403C120.476 11.2269 119.381 11.192 118.644 11.192V16.192ZM120.66 16.352H115.66V19.68H120.66H125.66V16.352H120.66ZM120.66 19.68V14.68H119.284V19.68V24.68H120.66V19.68ZM119.284 19.68V14.68C117.408 14.68 115.069 15.2797 113.491 17.4281C112.175 19.2189 112.076 21.236 112.076 22.272H117.076H122.076C122.076 22.0925 122.092 22.1222 122.058 22.2779C122.021 22.4427 121.904 22.8664 121.55 23.3479C121.165 23.8729 120.649 24.2596 120.118 24.4806C119.641 24.6792 119.308 24.68 119.284 24.68V19.68ZM117.076 22.272H112.076V24.192H117.076H122.076V22.272H117.076ZM117.076 24.192V29.192H123.732V24.192V19.192H117.076V24.192ZM123.732 24.192H128.732V19.264H123.732H118.732V24.192H123.732ZM123.732 19.264V24.264H127.636V19.264V14.264H123.732V19.264ZM127.636 19.264H122.636V24.192H127.636H132.636V19.264H127.636ZM127.636 24.192V29.192H130.708V24.192V19.192H127.636V24.192ZM130.708 24.192H125.708V27.456H130.708H135.708V24.192H130.708ZM130.708 27.456V22.456H127.636V27.456V32.456H130.708V27.456ZM127.636 27.456H122.636V40H127.636H132.636V27.456H127.636ZM127.636 40V35H123.732V40V45H127.636V40ZM123.732 40H128.732V27.456H123.732H118.732V40H123.732ZM123.732 27.456V22.456H117.076V27.456V32.456H123.732V27.456ZM117.076 27.456H112.076V40H117.076H122.076V27.456H117.076ZM117.076 40V35H113.204V40V45H117.076V40ZM113.204 40H118.204V27.456H113.204H108.204V40H113.204ZM113.204 27.456V22.456H110.932V27.456V32.456H113.204V27.456ZM110.932 27.456H115.932V24.192H110.932H105.932V27.456H110.932ZM139.152 28.32L143.288 31.13L145.175 28.3522L143.317 25.5544L139.152 28.32ZM131.376 16.608V11.608H122.055L127.21 19.3736L131.376 16.608ZM136.24 16.608L140.376 13.7982L138.888 11.608H136.24V16.608ZM139.088 20.8L143.248 18.0265L143.236 18.0083L143.224 17.9902L139.088 20.8ZM141.712 25.184L137.312 27.5597L141.365 35.065L145.934 27.8623L141.712 25.184ZM147.152 16.608V11.608H144.402L142.93 13.9297L147.152 16.608ZM151.92 16.608L156.103 19.347L161.17 11.608H151.92V16.608ZM144.272 28.288L140.089 25.549L138.294 28.29L140.091 31.0298L144.272 28.288ZM151.952 40V45H161.21L156.133 37.2582L151.952 40ZM147.12 40L142.981 42.805L144.468 45H147.12V40ZM144.496 36.128L140.31 38.8619L140.333 38.8977L140.357 38.933L144.496 36.128ZM141.712 31.456L146.098 29.0559L142.133 21.8099L137.552 28.6825L141.712 31.456ZM136.016 40V45H138.692L140.176 42.7735L136.016 40ZM131.216 40L127.08 37.19L121.774 45H131.216V40ZM139.152 28.32L143.317 25.5544L135.541 13.8424L131.376 16.608L127.21 19.3736L134.986 31.0856L139.152 28.32ZM131.376 16.608V21.608H136.24V16.608V11.608H131.376V16.608ZM136.24 16.608L132.104 19.4178L134.952 23.6098L139.088 20.8L143.224 17.9902L140.376 13.7982L136.24 16.608ZM139.088 20.8L134.928 23.5735C135.792 24.8696 136.513 26.0791 137.312 27.5597L141.712 25.184L146.111 22.8083C145.183 21.0889 144.304 19.6104 143.248 18.0265L139.088 20.8ZM141.712 25.184L145.934 27.8623L151.374 19.2863L147.152 16.608L142.93 13.9297L137.49 22.5057L141.712 25.184ZM147.152 16.608V21.608H151.92V16.608V11.608H147.152V16.608ZM151.92 16.608L147.737 13.869L140.089 25.549L144.272 28.288L148.455 31.027L156.103 19.347L151.92 16.608ZM144.272 28.288L140.091 31.0298L147.771 42.7418L151.952 40L156.133 37.2582L148.453 25.5462L144.272 28.288ZM151.952 40V35H147.12V40V45H151.952V40ZM147.12 40L151.259 37.195L148.635 33.323L144.496 36.128L140.357 38.933L142.981 42.805L147.12 40ZM144.496 36.128L148.682 33.3941C147.74 31.9511 146.974 30.6567 146.098 29.0559L141.712 31.456L137.326 33.8561C138.306 35.6473 139.204 37.1689 140.31 38.8619L144.496 36.128ZM141.712 31.456L137.552 28.6825L131.856 37.2265L136.016 40L140.176 42.7735L145.872 34.2295L141.712 31.456ZM136.016 40V35H131.216V40V45H136.016V40ZM131.216 40L135.352 42.81L143.288 31.13L139.152 28.32L135.016 25.51L127.08 37.19L131.216 40Z" fill="white" fill-opacity="0.9" mask="url(#path-2-outside-1_1290_838)"/>
</svg>
