<svg width="44" height="44" viewBox="0 0 44 44" fill="none" xmlns="http://www.w3.org/2000/svg">
<path fill-rule="evenodd" clip-rule="evenodd" d="M15.6239 6.25C15.9634 6.25007 16.2936 6.36072 16.5646 6.5652C16.8357 6.76969 17.0327 7.05688 17.126 7.38333L18.8197 13.3125C19.1844 14.5894 19.8686 15.7523 20.8076 16.6913C21.7466 17.6303 22.9095 18.3145 24.1864 18.6792L30.1155 20.3729C30.4418 20.4664 30.7287 20.6635 30.933 20.9345C31.1373 21.2055 31.2478 21.5356 31.2478 21.875C31.2478 22.2144 31.1373 22.5445 30.933 22.8155C30.7287 23.0865 30.4418 23.2836 30.1155 23.3771L24.1864 25.0708C22.9095 25.4355 21.7466 26.1197 20.8076 27.0587C19.8686 27.9977 19.1844 29.1606 18.8197 30.4375L17.126 36.3667C17.0325 36.6929 16.8354 36.9799 16.5644 37.1841C16.2934 37.3884 15.9632 37.4989 15.6239 37.4989C15.2845 37.4989 14.9544 37.3884 14.6834 37.1841C14.4124 36.9799 14.2152 36.6929 14.1218 36.3667L12.428 30.4375C12.0634 29.1606 11.3792 27.9977 10.4402 27.0587C9.50117 26.1197 8.33829 25.4355 7.06137 25.0708L1.13221 23.3771C0.805967 23.2836 0.519023 23.0865 0.314755 22.8155C0.110486 22.5445 0 22.2144 0 21.875C0 21.5356 0.110486 21.2055 0.314755 20.9345C0.519023 20.6635 0.805967 20.4664 1.13221 20.3729L7.06137 18.6792C8.33829 18.3145 9.50117 17.6303 10.4402 16.6913C11.3792 15.7523 12.0634 14.5894 12.428 13.3125L14.1218 7.38333C14.215 7.05688 14.4121 6.76969 14.6831 6.5652C14.9541 6.36072 15.2844 6.25007 15.6239 6.25ZM34.3739 2.42472e-07C34.7225 -0.000193878 35.0611 0.116175 35.3359 0.330596C35.6107 0.545018 35.806 0.845179 35.8905 1.18333L36.428 3.34167C36.9197 5.3 38.4489 6.82917 40.4072 7.32083L42.5655 7.85833C42.9043 7.94225 43.2053 8.1372 43.4204 8.41208C43.6355 8.68697 43.7524 9.02596 43.7524 9.375C43.7524 9.72404 43.6355 10.063 43.4204 10.3379C43.2053 10.6128 42.9043 10.8077 42.5655 10.8917L40.4072 11.4292C38.4489 11.9208 36.9197 13.45 36.428 15.4083L35.8905 17.5667C35.8066 17.9055 35.6117 18.2064 35.3368 18.4215C35.0619 18.6366 34.7229 18.7535 34.3739 18.7535C34.0248 18.7535 33.6858 18.6366 33.411 18.4215C33.1361 18.2064 32.9411 17.9055 32.8572 17.5667L32.3197 15.4083C32.0793 14.4467 31.5821 13.5685 30.8812 12.8677C30.1803 12.1668 29.3021 11.6696 28.3405 11.4292L26.1822 10.8917C25.8434 10.8077 25.5425 10.6128 25.3274 10.3379C25.1123 10.063 24.9954 9.72404 24.9954 9.375C24.9954 9.02596 25.1123 8.68697 25.3274 8.41208C25.5425 8.1372 25.8434 7.94225 26.1822 7.85833L28.3405 7.32083C29.3021 7.08044 30.1803 6.58323 30.8812 5.88234C31.5821 5.18146 32.0793 4.30327 32.3197 3.34167L32.8572 1.18333C32.9418 0.845179 33.137 0.545018 33.4119 0.330596C33.6867 0.116175 34.0253 -0.000193878 34.3739 2.42472e-07ZM31.2489 28.125C31.577 28.1248 31.8969 28.2279 32.1632 28.4198C32.4294 28.6116 32.6285 28.8824 32.7322 29.1938L33.553 31.6583C33.8655 32.5896 34.5947 33.3229 35.528 33.6333L37.9926 34.4563C38.303 34.5604 38.5728 34.7595 38.7639 35.0253C38.955 35.291 39.0578 35.6101 39.0578 35.9375C39.0578 36.2649 38.955 36.584 38.7639 36.8497C38.5728 37.1155 38.303 37.3146 37.9926 37.4188L35.528 38.2417C34.5968 38.5542 33.8635 39.2833 33.553 40.2167L32.7301 42.6813C32.6259 42.9916 32.4269 43.2614 32.1611 43.4525C31.8953 43.6436 31.5762 43.7465 31.2489 43.7465C30.9215 43.7465 30.6024 43.6436 30.3366 43.4525C30.0709 43.2614 29.8718 42.9916 29.7676 42.6813L28.9447 40.2167C28.7912 39.7568 28.5329 39.339 28.1901 38.9962C27.8474 38.6535 27.4295 38.3951 26.9697 38.2417L24.5051 37.4188C24.1948 37.3146 23.925 37.1155 23.7339 36.8497C23.5427 36.584 23.4399 36.2649 23.4399 35.9375C23.4399 35.6101 23.5427 35.291 23.7339 35.0253C23.925 34.7595 24.1948 34.5604 24.5051 34.4563L26.9697 33.6333C27.901 33.3208 28.6343 32.5917 28.9447 31.6583L29.7676 29.1938C29.8712 28.8827 30.07 28.6122 30.3358 28.4204C30.6017 28.2286 30.9211 28.1253 31.2489 28.125Z" fill="#FF6B00"/>
</svg>
